HIERARCHY
ROOT SpineBase
{
  OFFSET 0.000000 0.000000 0.000000
  CHANNELS 6 Xposition Yposition Zposition Zrotation Xrotation Yrotation
  JOINT SpineMid
  {
    OFFSET 0.000000 31.156431 0.000000
    CHANNELS 3 Zrotation Xrotation Yrotation
    JOINT SpineShoulder
    {
      OFFSET 0.151015 23.102105 -0.817047
      CHANNELS 3 Zrotation Xrotation Yrotation
      JOINT Neck
      {
        OFFSET 0.080882 7.638474 -0.618563
        CHANNELS 3 Zrotation Xrotation Yrotation
        JOINT Head
        {
          OFFSET 8.254828 10.660973 2.935301
          CHANNELS 3 Zrotation Xrotation Yrotation
          End Site
          {
            OFFSET 0 0 0
          }
        }
      }
      JOINT ShoulderLeft
      {
        OFFSET -5.295859 -4.450035 -12.683908
        CHANNELS 3 Zrotation Xrotation Yrotation
        JOINT ElbowLeft
        {
          OFFSET -1.536012 -24.737635 -6.516862
          CHANNELS 3 Zrotation Xrotation Yrotation
          JOINT WristLeft
          {
            OFFSET 3.837661 -25.168365 -1.512011
            CHANNELS 3 Zrotation Xrotation Yrotation
            JOINT HandLeft
            {
              OFFSET 0.296938 -6.859152 0.458913
              CHANNELS 3 Zrotation Xrotation Yrotation
              JOINT HandTipLeft
              {
                OFFSET 1.405256 -7.623904 -0.414410
                CHANNELS 3 Zrotation Xrotation Yrotation
                End Site
                {
                  OFFSET 0 0 0
                }
              }
              JOINT ThumbLeft
              {
                OFFSET -3.341675 0.276357 -0.235709
                CHANNELS 3 Zrotation Xrotation Yrotation
                End Site
                {
                  OFFSET 0 0 0
                }
              }
            }
          }
        }
      }
      JOINT ShoulderRight
      {
        OFFSET 7.009705 -5.939752 11.348282
        CHANNELS 3 Zrotation Xrotation Yrotation
        JOINT ElbowRight
        {
          OFFSET 3.427844 -30.398769 6.482144
          CHANNELS 3 Zrotation Xrotation Yrotation
          JOINT WristRight
          {
            OFFSET -2.340457 -29.186072 -5.084488
            CHANNELS 3 Zrotation Xrotation Yrotation
            JOINT HandRight
            {
              OFFSET 1.597710 -2.075097 3.637104
              CHANNELS 3 Zrotation Xrotation Yrotation
              JOINT HandTipRight
              {
                OFFSET -0.993324 -4.037969 -1.038466
                CHANNELS 3 Zrotation Xrotation Yrotation
                End Site
                {
                  OFFSET 0 0 0
                }
              }
              JOINT ThumbRight
              {
                OFFSET 1.905408 2.039676 -1.004749
                CHANNELS 3 Zrotation Xrotation Yrotation
                End Site
                {
                  OFFSET 0 0 0
                }
              }
            }
          }
        }
      }
    }
  }
  JOINT HipLeft
  {
    OFFSET -2.480146 1.475770 -8.809988
    CHANNELS 3 Zrotation Xrotation Yrotation
    JOINT KneeLeft
    {
      OFFSET -5.978697 -36.846464 -5.153007
      CHANNELS 3 Zrotation Xrotation Yrotation
      JOINT AnkleLeft
      {
        OFFSET -10.413507 -38.929293 2.370522
        CHANNELS 3 Zrotation Xrotation Yrotation
        JOINT FootLeft
        {
          OFFSET 9.444127 -3.821337 -7.980056
          CHANNELS 3 Zrotation Xrotation Yrotation
          End Site
          {
            OFFSET 0 0 0
          }
        }
      }
    }
  }
  JOINT HipRight
  {
    OFFSET 3.178666 0.619600 1.807313
    CHANNELS 3 Zrotation Xrotation Yrotation
    JOINT KneeRight
    {
      OFFSET 0.370211 -36.032701 9.636537
      CHANNELS 3 Zrotation Xrotation Yrotation
      JOINT AnkleRight
      {
        OFFSET -16.380183 -40.143480 -0.010207
        CHANNELS 3 Zrotation Xrotation Yrotation
        JOINT FootRight
        {
          OFFSET 3.065031 -6.771027 0.028090
          CHANNELS 3 Zrotation Xrotation Yrotation
          End Site
          {
            OFFSET 0 0 0
          }
        }
      }
    }
  }
}
MOTION
Frames: 13
Frame Time: 0.033333
-21.702110 91.589242 292.047201 -17.762999 4.742574 -41.747972 0.592246 0.121567 41.819141 -0.454948 1.000821 -0.721507 24.076923 5.108223 -7.377399 0.000000 0.000000 0.000000 9.182315 -1.515201 3.778492 -7.653012 -1.535211 -1.180561 -19.421723 -9.183032 -7.449795 5.474330 13.440353 8.485117 0.000000 0.000000 0.000000 0.000000 0.000000 0.000000 -10.151437 29.787881 7.458880 20.712589 -30.407433 6.693072 -20.263302 -6.846115 -55.812496 31.930361 16.600889 46.090575 0.000000 0.000000 0.000000 0.000000 0.000000 0.000000 17.855954 8.912659 40.947278 -4.571665 1.650315 -0.315056 -4.265230 -0.259933 21.006113 0.000000 0.000000 0.000000 20.039839 9.065137 41.574897 12.668288 -5.362546 2.751081 -13.739758 35.845165 10.258449 0.000000 0.000000 0.000000
-20.243228 90.980935 292.192034 -19.933700 6.510545 -42.331451 0.575542 0.209696 42.733752 -0.308612 0.947576 -0.807551 19.207814 4.908720 -5.861914 0.000000 0.000000 0.000000 12.684027 -1.520191 3.808211 -11.809299 -3.192168 -1.135077 -18.240675 -6.123429 -6.657301 1.083416 11.270732 9.668382 0.000000 0.000000 0.000000 0.000000 0.000000 0.000000 -10.204641 30.378139 8.222108 20.684443 -34.447545 6.874535 -23.687335 -7.740433 -67.172824 32.812013 20.912460 55.113724 0.000000 0.000000 0.000000 0.000000 0.000000 0.000000 22.314101 7.993478 41.708918 -6.190637 4.912908 -0.701404 -6.996390 0.276618 37.075118 0.000000 0.000000 0.000000 21.802013 8.347657 42.064274 16.903829 -4.742318 2.959497 -16.782583 45.053609 15.065428 0.000000 0.000000 0.000000
-18.836084 88.589726 292.486135 -20.733039 7.765843 -41.134158 0.332451 0.152198 41.782470 -0.200072 0.914419 -0.846772 14.696620 3.909731 -4.412637 0.000000 0.000000 0.000000 18.906108 0.394314 2.976341 -23.143371 -7.033823 -1.456134 -13.243340 -3.375633 -5.778380 -7.589376 5.742709 9.023029 0.000000 0.000000 0.000000 0.000000 0.000000 0.000000 -10.557712 28.700356 7.648996 16.728831 -37.559119 5.159300 -23.197289 4.964217 -79.039457 42.142417 25.316560 66.076015 0.000000 0.000000 0.000000 0.000000 0.000000 0.000000 25.278232 6.112918 40.939233 -8.002732 7.986967 -0.989270 -8.743830 -0.168743 50.103311 0.000000 0.000000 0.000000 22.647963 5.828228 40.874356 20.211283 -3.618800 2.999402 -3.985721 56.681254 12.281162 0.000000 0.000000 0.000000
-17.516272 84.858847 292.989191 -20.094445 8.399240 -41.110288 0.296460 -0.269200 41.766387 0.009610 1.019933 -0.787784 10.377452 4.416712 -4.238240 0.000000 0.000000 0.000000 27.193694 3.338351 0.900379 -37.964063 -11.622785 -2.602705 -6.981346 -1.581741 -5.100712 -12.675154 2.352884 7.658294 0.000000 0.000000 0.000000 0.000000 0.000000 0.000000 -9.625756 23.249320 5.055435 11.115591 -36.020867 3.165710 -15.460674 14.792784 -72.392915 50.601682 14.702667 65.445704 0.000000 0.000000 0.000000 0.000000 0.000000 0.000000 26.581619 4.236728 41.344826 -10.191567 11.154376 -1.137618 -9.322191 -1.281459 59.840566 0.000000 0.000000 0.000000 21.455599 3.284517 40.722554 23.364117 -2.951744 3.260384 33.882725 77.455186 -11.524773 0.000000 0.000000 0.000000
-16.644690 80.611313 293.244095 -18.415605 9.016599 -41.491765 -0.641941 0.092176 42.272221 0.439858 0.169852 -0.808444 5.664423 2.233349 -2.959749 0.000000 0.000000 0.000000 36.934239 5.752007 -2.183170 -54.503418 -16.759358 -5.117956 -1.953348 -0.329629 -4.664664 -11.966253 -0.572511 5.467489 0.000000 0.000000 0.000000 0.000000 0.000000 0.000000 -6.939289 14.537614 1.756034 4.470783 -33.999566 1.703817 -6.394093 19.934004 -55.637269 50.531194 -7.851858 61.450455 0.000000 0.000000 0.000000 0.000000 0.000000 0.000000 27.771606 1.841591 42.304483 -13.318254 15.062812 -0.988241 -8.161637 -4.904047 61.528891 0.000000 0.000000 0.000000 18.815593 0.381693 40.890988 27.593593 -4.723699 5.121263 -136.159439 81.435130 151.082029 0.000000 0.000000 0.000000
-15.457490 75.951509 294.217545 -15.853600 9.303518 -43.990750 -1.153507 0.581473 44.785092 0.820495 -0.375687 -0.694706 -0.430438 -1.324234 -1.169973 0.000000 0.000000 0.000000 47.656775 7.026987 -6.208509 -72.138668 -20.443168 -8.010250 0.899764 -1.364956 -5.306458 -6.894940 -0.966050 4.503742 0.000000 0.000000 0.000000 0.000000 0.000000 0.000000 -8.475145 13.833826 1.240987 -0.527307 -36.661387 -0.428431 -2.077507 27.782138 -52.257496 52.280239 -15.889210 63.331516 0.000000 0.000000 0.000000 0.000000 0.000000 0.000000 26.665744 0.073722 45.315395 -15.502557 17.923684 -0.860785 -5.408484 -5.845284 61.681319 0.000000 0.000000 0.000000 16.439583 -2.160961 43.088419 29.230760 -3.296423 4.661274 -161.936203 80.003793 -178.660668 0.000000 0.000000 0.000000
-14.886733 71.673527 295.080195 -13.210840 9.942728 -47.544923 -0.171836 0.816247 48.301706 -0.078470 0.138559 -0.626851 -5.024529 -5.965721 0.779371 0.000000 0.000000 0.000000 57.812133 6.396092 -9.473420 -87.424428 -23.002461 -10.606559 2.129217 -4.777017 -6.771708 2.618125 4.067515 5.157864 0.000000 0.000000 0.000000 0.000000 0.000000 0.000000 -9.923209 17.413442 2.267811 -5.725651 -40.732718 -4.170697 -0.515123 32.734727 -53.772991 53.392172 -9.904384 61.749895 0.000000 0.000000 0.000000 0.000000 0.000000 0.000000 26.052759 -1.459128 49.380305 -17.352684 20.342230 -0.593217 -1.727789 -4.036313 59.935505 0.000000 0.000000 0.000000 16.542795 -4.384148 46.773075 26.622296 1.423844 1.798940 155.350861 81.736886 -125.244344 0.000000 0.000000 0.000000
-14.907786 68.258499 295.810242 -10.588276 10.521862 -49.101018 -0.177435 0.766674 49.751436 -0.308469 0.681213 -0.510362 -8.106895 -12.549695 3.223296 0.000000 0.000000 0.000000 66.083186 5.086868 -11.449890 -100.240997 -24.381232 -13.054314 5.899751 -6.354078 -7.226617 5.407116 5.488751 4.432158 0.000000 0.000000 0.000000 0.000000 0.000000 0.000000 -11.338050 18.175724 2.254715 -6.086936 -42.757178 -5.114395 -5.334391 20.885208 -62.065773 41.181806 6.977566 60.417427 0.000000 0.000000 0.000000 0.000000 0.000000 0.000000 25.293658 -3.018920 51.365438 -18.849205 21.278102 -0.317242 1.403760 1.934490 61.404788 0.000000 0.000000 0.000000 18.238969 -7.259064 48.883132 22.113378 8.683558 -2.024062 92.580709 65.802314 -41.101758 0.000000 0.000000 0.000000
-14.652973 65.652391 296.582248 -8.834176 11.299152 -49.415471 -0.009166 0.973427 50.050084 -0.578699 1.279735 -0.444750 -8.956634 -19.981728 6.031535 0.000000 0.000000 0.000000 68.784285 2.860228 -10.682695 -106.063902 -24.022190 -12.940496 8.482183 -8.807112 -8.073545 4.623745 7.794350 4.932004 0.000000 0.000000 0.000000 0.000000 0.000000 0.000000 -13.479419 19.966622 2.462783 -6.589544 -48.111987 -7.024574 -6.004840 15.155194 -61.438176 33.571023 7.679701 59.644004 0.000000 0.000000 0.000000 0.000000 0.000000 0.000000 23.836471 -4.342943 51.937172 -18.535944 20.451179 -0.534509 5.531856 15.325059 62.836478 0.000000 0.000000 0.000000 21.000987 -9.635670 50.114017 16.005293 16.998422 -5.340409 94.387667 57.386209 -26.077546 0.000000 0.000000 0.000000
-13.803849 64.389113 297.566876 -7.501657 11.767744 -48.559749 0.148677 1.035866 49.146918 -0.768284 1.627622 -0.412749 -10.258770 -26.092657 8.745419 0.000000 0.000000 0.000000 69.592431 1.691339 -10.155379 -107.187011 -24.283739 -12.395474 5.032618 -8.738358 -8.338030 7.105980 9.803683 5.642950 0.000000 0.000000 0.000000 0.000000 0.000000 0.000000 -15.064841 20.474393 2.289965 -3.124163 -48.544735 -5.455548 -7.433457 -0.463304 -59.788506 18.069346 12.770348 56.591321 0.000000 0.000000 0.000000 0.000000 0.000000 0.000000 20.712291 -5.452012 51.000634 -17.468234 18.261733 -1.077658 9.386475 24.810708 61.931800 0.000000 0.000000 0.000000 22.865631 -11.850987 50.112268 10.390357 24.202247 -7.138004 99.678157 58.667550 -21.247742 0.000000 0.000000 0.000000
-12.437750 65.167755 298.716231 -7.323380 12.161700 -47.264943 0.085362 0.900338 47.842188 -0.930596 1.869483 -0.432310 -12.819479 -30.176662 10.187702 0.000000 0.000000 0.000000 69.036119 1.514515 -9.467560 -104.652378 -23.336427 -11.007349 2.119472 -10.481028 -9.239383 7.252733 14.748846 8.023531 0.000000 0.000000 0.000000 0.000000 0.000000 0.000000 -15.143001 20.904609 2.439982 1.041455 -47.503689 -3.222953 -13.813941 -9.287729 -65.528339 11.665805 18.747563 61.711074 0.000000 0.000000 0.000000 0.000000 0.000000 0.000000 17.628810 -6.181096 49.512457 -15.198777 16.095400 -1.810709 13.788334 29.807359 57.036861 0.000000 0.000000 0.000000 23.285575 -12.617886 49.167882 5.933562 27.877527 -7.348662 98.577329 33.870493 0.545518 0.000000 0.000000 0.000000
-12.226739 64.946300 299.076504 -6.739963 13.669720 -46.238477 0.322133 0.919466 46.877725 -0.769959 1.662866 -0.405999 -18.808992 -39.074626 12.721674 0.000000 0.000000 0.000000 73.410656 2.125945 -10.436383 -111.639680 -24.602670 -14.316297 1.448331 -10.258723 -9.397707 3.298320 16.230945 10.546925 0.000000 0.000000 0.000000 0.000000 0.000000 0.000000 -9.822431 20.977520 3.422711 -10.461971 -48.564431 -9.802990 -11.647917 -5.102818 -63.951041 21.815145 17.940147 56.778876 0.000000 0.000000 0.000000 0.000000 0.000000 0.000000 18.172133 -6.778688 48.562597 -17.357212 15.957922 -1.691045 14.625407 29.280952 57.974513 0.000000 0.000000 0.000000 25.872707 -14.051069 49.358791 2.899279 29.034599 -7.004475 110.806755 14.090406 9.660822 0.000000 0.000000 0.000000
-12.103427 64.346224 299.420136 -6.616198 13.009157 -42.219348 0.486816 0.733656 42.792483 -0.536229 1.434450 -0.360632 -18.322288 -38.025129 13.276921 0.000000 0.000000 0.000000 82.111297 4.561778 -15.523101 -124.304568 -25.757630 -21.198711 0.567804 -8.713806 -9.227742 -1.460761 16.716419 13.726249 0.000000 0.000000 0.000000 0.000000 0.000000 0.000000 -7.827490 21.031135 3.712264 -26.007864 -46.000901 -17.640617 -4.964303 14.635508 -71.684717 36.242105 16.052891 65.009415 0.000000 0.000000 0.000000 0.000000 0.000000 0.000000 15.993433 -5.128269 43.827372 -19.890257 13.217007 -1.780832 14.325837 24.309550 58.218225 0.000000 0.000000 0.000000 26.276962 -16.304633 46.008472 2.011628 30.190474 -6.706282 114.918362 1.775726 16.478253 0.000000 0.000000 0.000000
